<svg width="13" height="16" viewBox="0 0 13 16" fill="none" xmlns="http://www.w3.org/2000/svg">
<path d="M6.5 0V4.73571C6.5 5.15438 6.67121 5.55589 6.97595 5.85193C7.2807 6.14797 7.69402 6.31429 8.125 6.31429H13V14.2071C13 14.6258 12.8288 15.0273 12.524 15.3234C12.2193 15.6194 11.806 15.7857 11.375 15.7857H1.625C1.19402 15.7857 0.780698 15.6194 0.475951 15.3234C0.171205 15.0273 0 14.6258 0 14.2071V1.57857C0 1.15991 0.171205 0.758392 0.475951 0.462353C0.780698 0.166313 1.19402 0 1.625 0H6.5ZM7.71875 0.394643V4.73571C7.71875 4.84038 7.76155 4.94076 7.83774 5.01477C7.91392 5.08878 8.01726 5.13036 8.125 5.13036H12.5938L7.71875 0.394643Z" fill="#583819"/>
</svg>
