<svg width="42" height="28" viewBox="0 0 42 28" fill="none" xmlns="http://www.w3.org/2000/svg">
<path d="M33.8625 10.57C32.6725 4.5325 27.37 0 21 0C15.9425 0 11.55 2.87 9.3625 7.07C4.095 7.63 0 12.0925 0 17.5C0 23.2925 4.7075 28 10.5 28H33.25C38.08 28 42 24.08 42 19.25C42 14.63 38.4125 10.885 33.8625 10.57ZM33.25 24.5H10.5C6.6325 24.5 3.5 21.3675 3.5 17.5C3.5 13.9125 6.1775 10.92 9.73 10.5525L11.6025 10.36L12.4775 8.6975C14.14 5.495 17.395 3.5 21 3.5C25.585 3.5 29.54 6.755 30.4325 11.2525L30.9575 13.8775L33.635 14.07C36.365 14.245 38.5 16.5375 38.5 19.25C38.5 22.1375 36.1375 24.5 33.25 24.5ZM14 15.75H18.4625V21H23.5375V15.75H28L21 8.75L14 15.75Z" fill="#583819"/>
</svg>
