<svg width="16" height="16" viewBox="0 0 16 16" fill="none" xmlns="http://www.w3.org/2000/svg">
<path d="M8 9.12L10.32 11.44C10.4667 11.5867 10.6533 11.66 10.88 11.66C11.1067 11.66 11.2933 11.5867 11.44 11.44C11.5867 11.2933 11.66 11.1067 11.66 10.88C11.66 10.6533 11.5867 10.4667 11.44 10.32L9.11999 8L11.44 5.68C11.5867 5.53333 11.66 5.34666 11.66 5.12C11.66 4.89333 11.5867 4.70667 11.44 4.56C11.2933 4.41333 11.1067 4.34 10.88 4.34C10.6533 4.34 10.4667 4.41333 10.32 4.56L8 6.88L5.68 4.56C5.53333 4.41333 5.34666 4.34 5.12 4.34C4.89333 4.34 4.70666 4.41333 4.56 4.56C4.41333 4.70667 4.34 4.89333 4.34 5.12C4.34 5.34666 4.41333 5.53333 4.56 5.68L6.88 8L4.56 10.32C4.41333 10.4667 4.34 10.6533 4.34 10.88C4.34 11.1067 4.41333 11.2933 4.56 11.44C4.70666 11.5867 4.89333 11.66 5.12 11.66C5.34666 11.66 5.53333 11.5867 5.68 11.44L8 9.12ZM8 16C6.89333 16 5.85333 15.7899 4.88 15.3696C3.90667 14.9493 3.06 14.3795 2.34 13.66C1.62 12.9405 1.05013 12.0939 0.630401 11.12C0.210668 10.1461 0.000534346 9.10613 1.01266e-06 8C-0.00053232 6.89386 0.209601 5.85387 0.630401 4.88C1.0512 3.90613 1.62107 3.05947 2.34 2.34C3.05893 1.62053 3.9056 1.05067 4.88 0.6304C5.8544 0.210133 6.8944 0 8 0C9.10559 0 10.1456 0.210133 11.12 0.6304C12.0944 1.05067 12.9411 1.62053 13.66 2.34C14.3789 3.05947 14.9491 3.90613 15.3704 4.88C15.7917 5.85387 16.0016 6.89386 16 8C15.9984 9.10613 15.7883 10.1461 15.3696 11.12C14.9509 12.0939 14.3811 12.9405 13.66 13.66C12.9389 14.3795 12.0923 14.9496 11.12 15.3704C10.1477 15.7912 9.10773 16.0011 8 16ZM8 14.4C9.78666 14.4 11.3 13.78 12.54 12.54C13.78 11.3 14.4 9.78666 14.4 8C14.4 6.21333 13.78 4.7 12.54 3.46C11.3 2.22 9.78666 1.6 8 1.6C6.21333 1.6 4.7 2.22 3.46 3.46C2.22 4.7 1.6 6.21333 1.6 8C1.6 9.78666 2.22 11.3 3.46 12.54C4.7 13.78 6.21333 14.4 8 14.4Z" fill="#583819"/>
</svg>
